<svg xmlns="http://www.w3.org/2000/svg" width="1005" height="600"><rect width="1005" height="600" x="0" y="0" fill="#FFFFFF" id="backgorund"/><g id="viz"><clipPath id="serieClipPath"><rect x="-50" y="-20" width="805" height="600"/></clipPath><g transform="translate(0,0)"><g transform="translate(50,20)" clip-path="url(#serieClipPath)"><g id="axis"><g transform="translate(0,560)" fill="none" font-size="10" font-family="sans-serif" text-anchor="middle"><path class="domain" stroke="currentColor" d="M0.5,6V0.5H740.5V6"/><g class="tick" opacity="1" transform="translate(0.5,0)"><line stroke="currentColor" y2="6"/><text fill="currentColor" y="9" dy="0.71em">Jan 03</text></g><g class="tick" opacity="1" transform="translate(57.42307692307693,0)"><line stroke="currentColor" y2="6"/><text fill="currentColor" y="9" dy="0.71em">Jan 10</text></g><g class="tick" opacity="1" transform="translate(114.34615384615385,0)"><line stroke="currentColor" y2="6"/><text fill="currentColor" y="9" dy="0.71em">Jan 17</text></g><g class="tick" opacity="1" transform="translate(171.26923076923077,0)"><line stroke="currentColor" y2="6"/><text fill="currentColor" y="9" dy="0.71em">Jan 24</text></g><g class="tick" opacity="1" transform="translate(228.1923076923077,0)"><line stroke="currentColor" y2="6"/><text fill="currentColor" y="9" dy="0.71em">Jan 31</text></g><g class="tick" opacity="1" transform="translate(285.11538461538464,0)"><line stroke="currentColor" y2="6"/><text fill="currentColor" y="9" dy="0.71em">Feb 07</text></g><g class="tick" opacity="1" transform="translate(342.03846153846155,0)"><line stroke="currentColor" y2="6"/><text fill="currentColor" y="9" dy="0.71em">Feb 14</text></g><g class="tick" opacity="1" transform="translate(398.96153846153845,0)"><line stroke="currentColor" y2="6"/><text fill="currentColor" y="9" dy="0.71em">Feb 21</text></g><g class="tick" opacity="1" transform="translate(455.8846153846154,0)"><line stroke="currentColor" y2="6"/><text fill="currentColor" y="9" dy="0.71em">Feb 28</text></g><g class="tick" opacity="1" transform="translate(512.8076923076923,0)"><line stroke="currentColor" y2="6"/><text fill="currentColor" y="9" dy="0.71em">Mar 06</text></g><g class="tick" opacity="1" transform="translate(569.7307692307693,0)"><line stroke="currentColor" y2="6"/><text fill="currentColor" y="9" dy="0.71em">Mar 13</text></g><g class="tick" opacity="1" transform="translate(626.6538461538462,0)"><line stroke="currentColor" y2="6"/><text fill="currentColor" y="9" dy="0.71em">Mar 20</text></g><g class="tick" opacity="1" transform="translate(683.5769230769231,0)"><line stroke="currentColor" y2="6"/><text fill="currentColor" y="9" dy="0.71em">Mar 27</text></g><g class="tick" opacity="1" transform="translate(740.5,0)"><line stroke="currentColor" y2="6"/><text fill="currentColor" y="9" dy="0.71em">Apr 03</text></g><text x="740" dy="-5" text-anchor="end" style="font-family: Arial, sans-serif; font-size: 12px; fill: rgb(123, 123, 123); font-weight: bold;">日期</text></g><g transform="translate(0,0)" fill="none" font-size="10" font-family="sans-serif" text-anchor="end"><path class="domain" stroke="currentColor" d="M0.5,560.5V0.5"/><g class="tick" opacity="1" transform="translate(0,560.5)"><line stroke="currentColor" x2="-6"/><text fill="currentColor" x="-9" dy="0.32em">122</text></g><g class="tick" opacity="1" transform="translate(0,513.8333333333333)"><line stroke="currentColor" x2="-6"/><text fill="currentColor" x="-9" dy="0.32em">124</text></g><g class="tick" opacity="1" transform="translate(0,467.1666666666667)"><line stroke="currentColor" x2="-6"/><text fill="currentColor" x="-9" dy="0.32em">126</text></g><g class="tick" opacity="1" transform="translate(0,420.5)"><line stroke="currentColor" x2="-6"/><text fill="currentColor" x="-9" dy="0.32em">128</text></g><g class="tick" opacity="1" transform="translate(0,373.83333333333337)"><line stroke="currentColor" x2="-6"/><text fill="currentColor" x="-9" dy="0.32em">130</text></g><g class="tick" opacity="1" transform="translate(0,327.16666666666663)"><line stroke="currentColor" x2="-6"/><text fill="currentColor" x="-9" dy="0.32em">132</text></g><g class="tick" opacity="1" transform="translate(0,280.5)"><line stroke="currentColor" x2="-6"/><text fill="currentColor" x="-9" dy="0.32em">134</text></g><g class="tick" opacity="1" transform="translate(0,233.83333333333331)"><line stroke="currentColor" x2="-6"/><text fill="currentColor" x="-9" dy="0.32em">136</text></g><g class="tick" opacity="1" transform="translate(0,187.16666666666669)"><line stroke="currentColor" x2="-6"/><text fill="currentColor" x="-9" dy="0.32em">138</text></g><g class="tick" opacity="1" transform="translate(0,140.5)"><line stroke="currentColor" x2="-6"/><text fill="currentColor" x="-9" dy="0.32em">140</text></g><g class="tick" opacity="1" transform="translate(0,93.83333333333331)"><line stroke="currentColor" x2="-6"/><text fill="currentColor" x="-9" dy="0.32em">142</text></g><g class="tick" opacity="1" transform="translate(0,47.166666666666686)"><line stroke="currentColor" x2="-6"/><text fill="currentColor" x="-9" dy="0.32em">144</text></g><g class="tick" opacity="1" transform="translate(0,0.5)"><line stroke="currentColor" x2="-6"/><text fill="currentColor" x="-9" dy="0.32em">146</text></g><text x="4" text-anchor="start" dominant-baseline="hanging" style="font-family: Arial, sans-serif; font-size: 12px; fill: rgb(123, 123, 123); font-weight: bold;">收盤價</text></g></g><g id="viz"><g><path d="M0,548.3333333333333L1.3553113553113556,550.2777777777777C2.710622710622711,552.2222222222222,5.421245421245422,556.1111111111111,8.131868131868133,552.2222222222222C10.842490842490845,548.3333333333334,13.553113553113555,536.6666666666666,16.263736263736266,528.8888888888888C18.974358974358978,521.1111111111111,21.68498168498169,517.2222222222222,27.10622710622711,507.49999999999994C32.52747252747253,497.77777777777777,40.659340659340664,482.2222222222222,46.08058608058608,472.5C51.501831501831504,462.7777777777778,54.21245421245422,458.8888888888889,56.92307692307693,460.8333333333333C59.63369963369964,462.77777777777777,62.34432234432236,470.5555555555555,65.05494505494507,474.4444444444444C67.76556776556777,478.3333333333333,70.47619047619048,478.3333333333333,73.18681318681318,478.3333333333333C75.8974358974359,478.3333333333333,78.60805860805861,478.3333333333333,84.02930402930403,478.3333333333333C89.45054945054945,478.3333333333333,97.58241758241758,478.3333333333333,103.003663003663,470.5555555555555C108.42490842490842,462.77777777777777,111.13553113553114,447.22222222222223,130.10989010989013,418.0555555555556C149.08424908424908,388.8888888888889,184.32234432234432,346.11111111111114,203.2967032967033,332.50000000000006C222.27106227106228,318.8888888888889,224.981684981685,334.44444444444446,227.6923076923077,330.5555555555556C230.40293040293042,326.6666666666667,233.11355311355308,303.3333333333333,235.8241758241758,295.5555555555556C238.5347985347985,287.77777777777777,241.24542124542123,295.5555555555556,243.95604395604394,303.3333333333333C246.66666666666666,311.11111111111114,249.37728937728937,318.88888888888886,254.7985347985348,320.8333333333333C260.2197802197802,322.77777777777777,268.35164835164835,318.88888888888886,273.77289377289384,311.1111111111111C279.1941391941392,303.3333333333333,281.9047619047619,291.6666666666667,284.61538461538464,291.6666666666667C287.32600732600736,291.6666666666667,290.03663003663,303.3333333333333,292.74725274725273,311.1111111111111C295.45787545787545,318.88888888888886,298.16849816849816,322.77777777777777,300.8791208791209,338.3333333333333C303.5897435897436,353.88888888888886,306.3003663003663,381.11111111111114,311.72161172161174,385C317.14285714285717,388.8888888888889,325.2747252747253,369.4444444444445,330.69597069597074,351.9444444444445C336.1172161172161,334.44444444444446,338.82783882783883,318.8888888888889,341.5384615384615,318.8888888888889C344.24908424908426,318.8888888888889,346.9597069597069,334.44444444444446,349.6703296703297,324.72222222222223C352.38095238095235,315,355.09157509157507,280,357.8021978021978,264.44444444444446C360.5128205128205,248.8888888888889,363.2234432234432,252.7777777777778,368.64468864468864,256.6666666666667C374.0659340659341,260.5555555555556,382.1978021978022,264.4444444444444,387.61904761904765,264.44444444444446C393.0402930402931,264.4444444444444,395.75091575091574,260.5555555555556,398.4615384615385,252.7777777777778C401.17216117216117,245,403.88278388278394,233.33333333333334,406.5934065934066,208.05555555555557C409.30402930402937,182.7777777777778,412.01465201465203,143.88888888888889,414.7252747252747,141.94444444444446C417.43589743589746,140,420.1465201465201,175,430.989010989011,184.7222222222222C441.83150183150184,194.44444444444443,460.80586080586085,178.88888888888889,471.6483516483516,169.16666666666666C482.49084249084245,159.44444444444443,485.20146520146517,155.55555555555557,490.62271062271066,151.66666666666666C496.04395604395603,147.7777777777778,504.1758241758241,143.88888888888889,509.59706959706955,138.05555555555557C515.0183150183151,132.22222222222223,517.7289377289377,124.44444444444446,520.4395604395605,126.38888888888891C523.1501831501832,128.33333333333334,525.860805860806,140.00000000000003,528.5714285714286,147.7777777777778C531.2820512820513,155.55555555555557,533.992673992674,159.44444444444443,536.7032967032967,169.16666666666666C539.4139194139194,178.88888888888889,542.1245421245421,194.44444444444443,547.5457875457877,198.33333333333334C552.967032967033,202.22222222222226,561.0989010989011,194.44444444444446,566.5201465201466,196.3888888888889C571.941391941392,198.33333333333334,574.6520146520146,210,577.3626373626374,206.11111111111111C580.07326007326,202.22222222222226,582.7838827838827,182.77777777777774,585.4945054945055,159.44444444444446C588.2051282051282,136.11111111111111,590.9157509157509,108.8888888888889,593.6263736263736,85.55555555555556C596.3369963369963,62.22222222222223,599.047619047619,42.77777777777777,604.4688644688645,50.55555555555554C609.8901098901099,58.333333333333314,618.021978021978,93.33333333333331,623.4432234432235,112.77777777777776C628.8644688644689,132.2222222222222,631.5750915750915,136.11111111111111,634.2857142857142,120.55555555555554C636.9963369963369,105,639.7069597069598,70,642.4175824175824,54.44444444444445C645.1282051282052,38.88888888888889,647.8388278388278,42.77777777777779,650.5494505494506,44.722222222222236C653.2600732600732,46.666666666666686,655.9706959706959,46.666666666666686,661.3919413919413,48.61111111111112C666.8131868131868,50.555555555555564,674.945054945055,54.444444444444436,680.3663003663004,60.27777777777777C685.7875457875458,66.1111111111111,688.4981684981685,73.8888888888889,691.2087912087912,75.83333333333334C693.9194139194138,77.77777777777779,696.6300366300366,73.8888888888889,697.9853479853479,71.94444444444444L699.3406593406593,70" stroke="#1f77b4" fill="none"/><text font-family="sans-serif" font-size="10" class="labels" x="601.7582417582418" y="23.333333333333314" dx="0" dy="-4" text-anchor="middle"/></g></g></g><text y="4" x="4" style="font-family: Arial, sans-serif; font-size: 12px; fill: black; font-weight: bold; dominant-baseline: hanging;"/></g><g id="grid"><rect x="0" y="0" width="805" height="600" fill="none" stroke="#ccc"/></g></g><g id="legend" transform="translate(805,20)"><g transform="translate(5,0)"/></g></svg>